TITLE ""
FILE "2Q_t_1035-1052.mp3" MP3
  TRACK 01 AUDIO
    TITLE "2Q_t_1035-1052_01"
    INDEX 01 00:00:00
  TRACK 02 AUDIO
    TITLE "2Q_t_1035-1052_02"
    INDEX 01 00:00:10
  TRACK 03 AUDIO
    TITLE "2Q_t_1035-1052_03"
    INDEX 01 00:01:27
  TRACK 04 AUDIO
    TITLE "2Q_t_1035-1052_04"
    INDEX 01 00:02:01
  TRACK 05 AUDIO
    TITLE "2Q_t_1035-1052_05"
    INDEX 01 00:03:24
  TRACK 06 AUDIO
    TITLE "2Q_t_1035-1052_06"
    INDEX 01 00:03:69
  TRACK 07 AUDIO
    TITLE "2Q_t_1035-1052_07"
    INDEX 01 00:04:71
  TRACK 08 AUDIO
    TITLE "2Q_t_1035-1052_08"
    INDEX 01 00:05:43
  TRACK 09 AUDIO
    TITLE "2Q_t_1035-1052_09"
    INDEX 01 00:08:73
  TRACK 10 AUDIO
    TITLE "2Q_t_1035-1052_10"
    INDEX 01 00:09:43
  TRACK 11 AUDIO
    TITLE "2Q_t_1035-1052_11"
    INDEX 01 00:10:69
  TRACK 12 AUDIO
    TITLE "2Q_t_1035-1052_12"
    INDEX 01 00:11:41
  TRACK 13 AUDIO
    TITLE "2Q_t_1035-1052_13"
    INDEX 01 00:13:64
  TRACK 14 AUDIO
    TITLE "2Q_t_1035-1052_14"
    INDEX 01 00:14:32
  TRACK 15 AUDIO
    TITLE "2Q_t_1035-1052_15"
    INDEX 01 00:15:73
  TRACK 16 AUDIO
    TITLE "2Q_t_1035-1052_16"
    INDEX 01 00:16:45
  TRACK 17 AUDIO
    TITLE "2Q_t_1035-1052_17"
    INDEX 01 00:19:10
  TRACK 18 AUDIO
    TITLE "2Q_t_1035-1052_18"
    INDEX 01 00:19:55
  TRACK 19 AUDIO
    TITLE "2Q_t_1035-1052_19"
    INDEX 01 00:20:72
  TRACK 20 AUDIO
    TITLE "2Q_t_1035-1052_20"
    INDEX 01 00:21:46
  TRACK 21 AUDIO
    TITLE "2Q_t_1035-1052_21"
    INDEX 01 00:24:03
  TRACK 22 AUDIO
    TITLE "2Q_t_1035-1052_22"
    INDEX 01 00:24:48
  TRACK 23 AUDIO
    TITLE "2Q_t_1035-1052_23"
    INDEX 01 00:26:06
  TRACK 24 AUDIO
    TITLE "2Q_t_1035-1052_24"
    INDEX 01 00:26:59
  TRACK 25 AUDIO
    TITLE "2Q_t_1035-1052_25"
    INDEX 01 00:28:07
  TRACK 26 AUDIO
    TITLE "2Q_t_1035-1052_26"
    INDEX 01 00:28:52
  TRACK 27 AUDIO
    TITLE "2Q_t_1035-1052_27"
    INDEX 01 00:30:25
  TRACK 28 AUDIO
    TITLE "2Q_t_1035-1052_28"
    INDEX 01 00:30:70
  TRACK 29 AUDIO
    TITLE "2Q_t_1035-1052_29"
    INDEX 01 00:31:66
  TRACK 30 AUDIO
    TITLE "2Q_t_1035-1052_30"
    INDEX 01 00:32:34
  TRACK 31 AUDIO
    TITLE "2Q_t_1035-1052_31"
    INDEX 01 00:33:47
  TRACK 32 AUDIO
    TITLE "2Q_t_1035-1052_32"
    INDEX 01 00:34:17
  TRACK 33 AUDIO
    TITLE "2Q_t_1035-1052_33"
    INDEX 01 00:36:37
  TRACK 34 AUDIO
    TITLE "2Q_t_1035-1052_34"
    INDEX 01 00:37:06
  TRACK 35 AUDIO
    TITLE "2Q_t_1035-1052_35"
    INDEX 01 00:38:36
  TRACK 36 AUDIO
    TITLE "2Q_t_1035-1052_36"
    INDEX 01 00:39:10
  TRACK 37 AUDIO
    TITLE "2Q_t_1035-1052_37"
    INDEX 01 00:40:12
  TRACK 38 AUDIO
    TITLE "2Q_t_1035-1052_38"
    INDEX 01 00:40:55
  TRACK 39 AUDIO
    TITLE "2Q_t_1035-1052_39"
    INDEX 01 00:42:22
  TRACK 40 AUDIO
    TITLE "2Q_t_1035-1052_40"
    INDEX 01 00:42:67
  TRACK 41 AUDIO
    TITLE "2Q_t_1035-1052_41"
    INDEX 01 00:44:08
  TRACK 42 AUDIO
    TITLE "2Q_t_1035-1052_42"
    INDEX 01 00:44:53
  TRACK 43 AUDIO
    TITLE "2Q_t_1035-1052_43"
    INDEX 01 00:46:06
  TRACK 44 AUDIO
    TITLE "2Q_t_1035-1052_44"
    INDEX 01 00:46:54
  TRACK 45 AUDIO
    TITLE "2Q_t_1035-1052_45"
    INDEX 01 00:48:74
  TRACK 46 AUDIO
    TITLE "2Q_t_1035-1052_46"
    INDEX 01 00:49:42
  TRACK 47 AUDIO
    TITLE "2Q_t_1035-1052_47"
    INDEX 01 00:50:61
  TRACK 48 AUDIO
    TITLE "2Q_t_1035-1052_48"
    INDEX 01 00:51:39
  TRACK 49 AUDIO
    TITLE "2Q_t_1035-1052_49"
    INDEX 01 00:54:75
  TRACK 50 AUDIO
    TITLE "2Q_t_1035-1052_50"
    INDEX 01 00:55:47
  TRACK 51 AUDIO
    TITLE "2Q_t_1035-1052_51"
    INDEX 01 00:56:64
  TRACK 52 AUDIO
    TITLE "2Q_t_1035-1052_52"
    INDEX 01 00:57:47
  TRACK 53 AUDIO
    TITLE "2Q_t_1035-1052_53"
    INDEX 01 00:59:01
  TRACK 54 AUDIO
    TITLE "2Q_t_1035-1052_54"
    INDEX 01 00:59:46
  TRACK 55 AUDIO
    TITLE "2Q_t_1035-1052_55"
    INDEX 01 01:00:71
  TRACK 56 AUDIO
    TITLE "2Q_t_1035-1052_56"
    INDEX 01 01:01:43
  TRACK 57 AUDIO
    TITLE "2Q_t_1035-1052_57"
    INDEX 01 01:04:04
  TRACK 58 AUDIO
    TITLE "2Q_t_1035-1052_58"
    INDEX 01 01:04:48
  TRACK 59 AUDIO
    TITLE "2Q_t_1035-1052_59"
    INDEX 01 01:05:67
  TRACK 60 AUDIO
    TITLE "2Q_t_1035-1052_60"
    INDEX 01 01:06:39
  TRACK 61 AUDIO
    TITLE "2Q_t_1035-1052_61"
    INDEX 01 01:09:10
  TRACK 62 AUDIO
    TITLE "2Q_t_1035-1052_62"
    INDEX 01 01:09:55
  TRACK 63 AUDIO
    TITLE "2Q_t_1035-1052_63"
    INDEX 01 01:10:58
  TRACK 64 AUDIO
    TITLE "2Q_t_1035-1052_64"
    INDEX 01 01:11:28
  TRACK 65 AUDIO
    TITLE "2Q_t_1035-1052_65"
    INDEX 01 01:12:22
  TRACK 66 AUDIO
    TITLE "2Q_t_1035-1052_66"
    INDEX 01 01:12:67
  TRACK 67 AUDIO
    TITLE "2Q_t_1035-1052_67"
    INDEX 01 01:14:05
  TRACK 68 AUDIO
    TITLE "2Q_t_1035-1052_68"
    INDEX 01 01:14:60
  TRACK 69 AUDIO
    TITLE "2Q_t_1035-1052_69"
    INDEX 01 01:16:02
  TRACK 70 AUDIO
    TITLE "2Q_t_1035-1052_70"
    INDEX 01 01:16:45
  TRACK 71 AUDIO
    TITLE "2Q_t_1035-1052_71"
    INDEX 01 01:18:03
  TRACK 72 AUDIO
    TITLE "2Q_t_1035-1052_72"
    INDEX 01 01:18:54
  TRACK 73 AUDIO
    TITLE "2Q_t_1035-1052_73"
    INDEX 01 01:19:73
